# xmcd
#
# Track frame offsets:
#	150
#	9679
#	37951
#	72599
#	101685
#	165315
#	166190
#	180321
#	201433
#	224525
#
# Disc length: 3483 seconds
#
# Revision: 1
# Processed by: cddbd v1.5.2PL0 Copyright (c) Steve Scherf et al.
# Submitted via: audiograbber 1.83.01
#
DISCID=850d990a
DTITLE=Grateful Dead - 72-09-10 Hollywood Palladium, Hollywood CA
DYEAR=1900
DGENRE=
TTITLE0=Bertha
TTITLE1=Greatest Story Ever Told
TTITLE2=Mississippi Half-Step
TTITLE3=Black Throated Wind
TTITLE4=Bird Song
TTITLE5=Crowd Noise
TTITLE6=Promised Land
TTITLE7=Deal
TTITLE8=El Paso
TTITLE9=Sugaree
EXTD=
EXTT0=
EXTT1=
EXTT2=
EXTT3=
EXTT4=
EXTT5=
EXTT6=
EXTT7=
EXTT8=
EXTT9=
PLAYORDER=
